<?xml version="1.0" encoding="iso-8859-1"?>
<!-- Generator: Adobe Illustrator 19.0.0, SVG Export Plug-In . SVG Version: 6.00 Build 0)  -->
<svg version="1.1" id="Layer_1" xmlns="http://www.w3.org/2000/svg" xmlns:xlink="http://www.w3.org/1999/xlink" x="0px" y="0px"
	 viewBox="0 0 512 512" style="enable-background:new 0 0 512 512;" xml:space="preserve">
<polygon style="fill:#57545C;" points="299.856,478.752 212.081,478.752 212.081,408.144 300.764,408.144 "/>
<path style="fill:#77757E;" d="M353.474,61.799l45.042,16.018v69.348v91.69v265.541h-22.793c-35.298,0-68.952-14.918-92.657-41.072
	l-27.1-29.899l-27.098,29.899c-23.705,26.155-57.359,41.072-92.657,41.072h-22.793V238.855v-91.69V77.817l46.255-16.449
	L353.474,61.799z"/>
<path style="fill:#ACAAB1;" d="M208.989,7.604c-14.629,0-35.918,7.157-48.126,15.19c-31.51,20.732,95.761,256.796,95.761,256.796
	S383.896,43.526,352.386,22.794c-12.208-8.033-33.497-15.19-48.126-15.19H208.989z"/>
<g>
	<polygon style="fill:#77757E;" points="113.42,301.527 72.211,437.225 10.057,418.35 113.485,77.764 144.756,77.764 
		144.756,302.595 	"/>
	<polygon style="fill:#77757E;" points="398.58,301.527 439.789,437.225 501.942,418.35 398.515,77.764 370.09,77.764 
		370.09,298.622 	"/>
</g>
<g>
	<path style="fill:#57545C;" d="M255.968,277.386c0,0-86.011-269.782-48.292-269.782c31.079,0,61.019,0,96.585,0
		C341.978,7.604,255.968,277.386,255.968,277.386"/>
	<path style="fill:#57545C;" d="M255.968,458.547c-4.2,0-7.604-3.405-7.604-7.604V249.352c0-4.199,3.404-7.604,7.604-7.604
		c4.2,0,7.604,3.405,7.604,7.604v201.591C263.571,455.143,260.168,458.547,255.968,458.547z"/>
</g>
<g>
	<path style="fill:#3E3B43;" d="M312.473,51.109c2.968-26.038,1.383-43.505-8.213-43.505c-35.565,0-65.506,0-96.585,0
		c-9.597,0-11.181,17.474-8.212,43.519c16.458-1.19,35.852-1.877,56.616-1.877C276.754,49.246,296.062,49.929,312.473,51.109z"/>
	<path style="fill:#3E3B43;" d="M344.56,408.144h-9.257c-19.076,0-34.539-15.463-34.539-34.539v-49.211h56.637v70.907
		C357.401,402.395,351.652,408.144,344.56,408.144z"/>
	<path style="fill:#3E3B43;" d="M168.431,408.144h9.515c19.076,0,34.539-15.463,34.539-34.539v-49.211h-56.637v71.167
		C155.848,402.51,161.482,408.144,168.431,408.144z"/>
</g>
<g>
	<polygon style="fill:#57545C;" points="10.26,418.35 72.414,437.225 81.258,408.102 19.061,389.369 	"/>
	<polygon style="fill:#57545C;" points="501.942,418.35 493.071,389.135 430.874,407.866 439.789,437.225 	"/>
	<polygon style="fill:#57545C;" points="93.16,144.625 93.16,368.174 113.384,301.573 113.384,78.025 	"/>
	<polygon style="fill:#57545C;" points="418.775,144.625 418.775,368.174 398.551,301.573 398.551,78.025 	"/>
</g>
<g>
	<path style="fill:#ACAAB1;" d="M214.333,341.726h-58.801c-2.23,0-4.055-1.825-4.055-4.055v-7.562c0-2.23,1.825-4.055,4.055-4.055
		h58.801c2.23,0,4.055,1.825,4.055,4.055v7.562C218.389,339.901,216.564,341.726,214.333,341.726z"/>
	<path style="fill:#ACAAB1;" d="M360.461,341.726H301.66c-2.23,0-4.055-1.825-4.055-4.055v-7.562c0-2.23,1.825-4.055,4.055-4.055
		h58.801c2.23,0,4.055,1.825,4.055,4.055v7.562C364.517,339.901,362.692,341.726,360.461,341.726z"/>
</g>
<path d="M357.401,316.79h-56.637c-4.2,0-7.604,3.405-7.604,7.604v49.211c0,23.238,18.905,42.143,42.143,42.143h22.098
	c4.2,0,7.604-3.405,7.604-7.604v-83.749C365.005,320.195,361.602,316.79,357.401,316.79z M349.797,400.539h-14.494
	c-14.852,0-26.935-12.083-26.935-26.935v-41.607h41.429L349.797,400.539L349.797,400.539z"/>
<path d="M220.09,324.394c0-4.199-3.404-7.604-7.604-7.604h-56.637c-4.2,0-7.604,3.405-7.604,7.604v83.749
	c0,4.199,3.404,7.604,7.604,7.604h22.098c23.238,0,42.143-18.905,42.143-42.143V324.394z M204.882,373.605
	c0,14.852-12.083,26.935-26.935,26.935h-14.494v-68.541h41.429V373.605z"/>
<path d="M509.219,416.14L405.792,75.555c-0.813-2.678-2.971-4.57-5.508-5.18l-37.84-13.457c4.788-22.005,2.849-34.736-5.878-40.478
	C342.554,7.222,319.578,0,304.26,0h-96.585c-0.418,0-0.825,0.038-1.234,0.072c-15.228,0.721-36.5,7.647-49.758,16.37
	c-8.669,5.703-10.636,18.308-5.97,40.043l-39.237,13.954c-0.949,0.262-1.837,0.703-2.617,1.3c-0.029,0.021-0.059,0.042-0.087,0.064
	c-0.243,0.192-0.474,0.398-0.694,0.619c-0.125,0.123-0.238,0.253-0.354,0.384c-0.059,0.069-0.117,0.139-0.173,0.21
	c-0.758,0.927-1.293,2.023-1.548,3.216L2.781,416.14c-0.585,1.929-0.381,4.013,0.57,5.792c0.95,1.778,2.567,3.107,4.497,3.694
	l62.155,18.875c0.724,0.22,1.467,0.328,2.21,0.328c1.239,0,2.471-0.302,3.582-0.896c1.779-0.951,3.107-2.568,3.695-4.499
	l8.429-27.759c0.222-0.423,0.418-0.865,0.561-1.339c0.144-0.48,0.236-0.961,0.284-1.442l17.054-56.158v151.658
	c0,4.199,3.404,7.604,7.604,7.604h22.793c28.347,0,55.801-9.145,78.361-25.644h82.789C319.923,502.855,347.377,512,375.723,512
	h22.792c4.2,0,7.604-3.405,7.604-7.604V352.522l16.403,54.016c-0.265,1.219-0.235,2.519,0.15,3.798
	c0.387,1.287,1.092,2.387,1.993,3.259l7.846,25.839c0.586,1.929,1.915,3.547,3.695,4.499c1.112,0.594,2.344,0.896,3.582,0.896
	c0.742,0,1.487-0.108,2.21-0.328l62.155-18.875c1.929-0.586,3.547-1.914,4.497-3.693C509.6,420.153,509.804,418.07,509.219,416.14z
	 M309.421,155.771c-8.254,18.24-16.892,36.324-24.948,52.715c4.552-16.058,9.372-33.65,13.957-51.478
	c9.466-36.814,16.099-67.449,19.716-91.052c0.75-4.898,1.35-9.374,1.828-13.496c0.008-0.07,0.023-0.137,0.029-0.208
	c0.002-0.022,0.001-0.044,0.003-0.066c1.945-16.939,1.711-27.597,0.471-34.624c9.903,2.503,20.399,6.759,27.731,11.583
	C348.35,29.239,361.863,39.871,309.421,155.771z M208.989,15.208h94.878c0.812,1.146,3.566,6.738,1.74,28.149
	c-14.874-1.123-31.652-1.714-49.033-1.714c-17.882,0-35.074,0.623-50.238,1.807c-1.829-21.337,0.879-27.011,1.712-28.214
	C208.361,15.228,208.686,15.208,208.989,15.208z M256.574,56.85c16.779,0,32.95,0.561,47.295,1.626
	c-0.072,0.515-0.14,1.016-0.215,1.542c-3.303,22.921-9.757,53.268-19.183,90.197c-10.027,39.28-21.339,77.777-28.502,101.409
	c-7.163-23.632-18.476-62.129-28.502-101.409c-9.426-36.929-15.88-67.275-19.183-90.197c-0.071-0.496-0.135-0.966-0.203-1.452
	C222.713,57.442,239.296,56.85,256.574,56.85z M255.968,444.749l21.465,23.683c0.833,0.92,1.68,1.824,2.538,2.717h-48.005
	c0.857-0.893,1.704-1.799,2.538-2.718L255.968,444.749z M165.042,29.145c6.993-4.6,16.861-8.675,26.35-11.214
	c-1.48,8.802-1.41,23.164,2.399,48.025c3.616,23.603,10.249,54.238,19.716,91.052c3.989,15.513,8.157,30.849,12.17,45.149
	c-7.138-14.642-14.626-30.422-21.822-46.325C151.382,39.875,164.899,29.239,165.042,29.145z M67.145,427.74l-47.603-14.456
	l4.387-14.445l47.636,14.346L67.145,427.74z M121.024,496.792V301.519c0-0.027,0-0.054,0-0.081v-62.584
	c0-4.199-3.404-7.604-7.604-7.604s-7.604,3.405-7.604,7.604v61.542l-29.831,98.235l-47.636-14.346l77.467-255.098v17.977
	c0,4.199,3.404,7.604,7.604,7.604s7.604-3.405,7.604-7.604V83.183l33.471-11.903c0.245,0.847,0.494,1.698,0.754,2.565
	c6.734,22.483,18.426,52.177,34.752,88.256c24.168,53.41,51.599,105.46,58.363,118.166v150.227l-25.129,27.724
	c-22.219,24.514-53.937,38.574-87.023,38.574H121.024z M398.515,231.251c-4.2,0-7.604,3.405-7.604,7.604v257.938h-15.188
	c-33.085,0-64.803-14.06-87.023-38.573l-25.129-27.725V282.724c3.078-5.74,33.318-62.375,59.677-120.623
	c16.327-36.078,28.019-65.772,34.751-88.256c0.217-0.725,0.423-1.433,0.63-2.142l32.281,11.48v63.982
	c0,4.199,3.404,7.604,7.604,7.604c4.2,0,7.604-3.405,7.604-7.604v-18.192l77.461,255.078l-47.636,14.346l-29.825-98.216v-61.326
	C406.119,234.655,402.715,231.251,398.515,231.251z M444.855,427.74l-4.491-14.79L488,398.604l4.458,14.68L444.855,427.74z"/>
<g>
</g>
<g>
</g>
<g>
</g>
<g>
</g>
<g>
</g>
<g>
</g>
<g>
</g>
<g>
</g>
<g>
</g>
<g>
</g>
<g>
</g>
<g>
</g>
<g>
</g>
<g>
</g>
<g>
</g>
</svg>
