<svg xmlns="http://www.w3.org/2000/svg" viewBox="0 0 64 64"><defs><style>.cls-1{isolation:isolate;}.cls-2{fill:#730;}.cls-3,.cls-7{fill:#fff;}.cls-4{fill:#9e5010;}.cls-5{fill:none;stroke:#000;stroke-linejoin:round;stroke-width:2px;}.cls-6{opacity:0.19;mix-blend-mode:multiply;}.cls-7,.cls-8{mix-blend-mode:overlay;}</style></defs><title>Icon Color</title><g class="cls-1"><g id="Layer_3" data-name="Layer 3"><g id="Vector"><polygon class="cls-2" points="37.42 1.98 32.35 7.04 27.29 1.98 37.42 1.98"/><rect class="cls-3" x="34.2" y="4.73" width="8.38" height="4.29" transform="translate(6.39 29.16) rotate(-45)"/><rect class="cls-3" x="24.17" y="2.68" width="4.29" height="8.38" transform="translate(2.83 20.58) rotate(-44.91)"/><path class="cls-4" d="M31.48,10.46,31.15,62c-10.51-.11-16.65-2-17-3v0h0c0-.12,0-.25,0-.36v-33h-2V53.74c-.49.71-2,1.4-4.79,1.4-1.86,0-2.31-.31-2.4-.41s-.13-.59-.11-1c0-.18,0-.35,0-.54,0-.44,0-1,0-1.72,0,0,0,0,0-.06h0c.48-10.8,1.65-29.46,2.75-37.14a4.89,4.89,0,0,1,3.09-3.86l9.54-3.67,6.79,6.78a1,1,0,0,0,.7.29,1,1,0,0,0,.71-.29Z"/><path class="cls-3" d="M59.25,60.25c-.09.09-.53.39-2.25.41-3.33,0-4.86-1-4.86-2V56.25a11.09,11.09,0,0,0,4.79.89,9.31,9.31,0,0,0,2.39-.24c0,.71,0,1.31,0,1.76,0,.18,0,.36,0,.53C59.38,59.66,59.39,60.11,59.25,60.25Z"/><path class="cls-3" d="M12.15,56.25v2.42c0,1-1.57,2-5,2-1.86,0-2.31-.32-2.4-.42s-.13-.58-.11-1c0-.18,0-.35,0-.53,0-.46,0-1.08,0-1.85a8.69,8.69,0,0,0,2.68.32A11.09,11.09,0,0,0,12.15,56.25Z"/><path class="cls-4" d="M56.35,14.22a4.87,4.87,0,0,0-3.08-3.86L44.51,6.61l-6.86,6.86a1,1,0,0,1-1.41,0l-2.76-2.76L33.15,62c9.62-.1,15.55-1.69,16.77-2.75a3.08,3.08,0,0,1-.07-.61v-33h2V53.34a1,1,0,0,1,.19.25c.37.75,1.85,1.55,4.89,1.55a4.54,4.54,0,0,0,2.32-.35C58.89,44.88,57.55,22.56,56.35,14.22ZM47,29a5.66,5.66,0,1,1-11.32,0V23.43a1,1,0,0,1,1-1H46a1,1,0,0,1,1,1Z"/><path class="cls-3" d="M45,24.43V29a3.66,3.66,0,1,1-7.32,0V24.43Z"/></g><g id="Line"><path class="cls-5" d="M13.14,59c0,2.22,8.5,4,19,4"/><path class="cls-5" d="M32.49,8.31,32.14,63c10.51,0,19-1.78,19-4"/><path class="cls-5" d="M13.15,54v4.63c0,1.65-2,3-6,3s-3.5-1.35-3.5-3c0-1.35.09-4,.24-7.28,0,.71,0,1.3,0,1.75,0,1.66-.5,3,3.5,3C10.61,56.14,12.54,55.26,13.15,54Z"/><path class="cls-5" d="M60,55.47c-.45.42-1.34.67-3.08.67-3.25,0-5.18-.88-5.79-2.1v4.63c0,1.65,2,3,6,3A5.42,5.42,0,0,0,60,61.15"/><line class="cls-5" x1="13.15" y1="54.03" x2="13.15" y2="25.66"/><path class="cls-5" d="M5.08,31c.48-6.81,1-13.18,1.57-16.92a5.88,5.88,0,0,1,3.72-4.66l9.78-3.76"/><path class="cls-5" d="M3.89,51.39v-.08c.17-3.77.42-8.47.72-13.31"/><path class="cls-5" d="M44.28,5.43l9.35,4a5.92,5.92,0,0,1,3.72,4.66c1.43,10,3,38.82,3,44.58,0,1.66.5,3-3.5,3s-6-1.34-6-3v-33"/><polygon class="cls-5" points="32.21 8.31 29.67 10.86 27.76 12.77 20.42 5.42 24.51 1.33 24.87 0.97 29.67 5.78 32.21 8.31"/><polygon class="cls-5" points="44.28 5.42 36.94 12.77 32.49 8.31 34.81 6 39.83 0.97 44.28 5.42"/><line class="cls-5" x1="24.87" y1="0.98" x2="39.83" y2="0.98"/><path class="cls-5" d="M36.68,23.43H46a0,0,0,0,1,0,0v5.52a4.66,4.66,0,0,1-4.66,4.66h0a4.66,4.66,0,0,1-4.66-4.66V23.43A0,0,0,0,1,36.68,23.43Z"/></g><g id="Shadow"><g class="cls-6"><path d="M39.83,2.39l0,0a27.91,27.91,0,0,1,.79,5.28l2.27-2.27Z"/><path d="M12.15,58.67V56.25a11.09,11.09,0,0,1-4.79.89,8.69,8.69,0,0,1-2.68-.32c0,.77,0,1.39,0,1.85,0,.18,0,.35,0,.53,0,.47,0,.91.11,1s.54.42,2.4.42C10.58,60.67,12.15,59.63,12.15,58.67Z"/><path d="M4.88,51.36s0,0,0,.06c0,.7,0,1.28,0,1.72,0,.19,0,.36,0,.54,0,.46,0,.91.11,1s.54.41,2.4.41c2.83,0,4.3-.69,4.79-1.4V51.25l-1.62-.11a31.1,31.1,0,0,0-5.63-.08c0,.1,0,.2,0,.3Z"/><path d="M59.32,56.9a9.31,9.31,0,0,1-2.39.24,11.09,11.09,0,0,1-4.79-.89v2.42c0,.94,1.53,2,4.86,2,1.72,0,2.16-.32,2.25-.41s.13-.59.11-1.06c0-.17,0-.35,0-.53C59.35,58.21,59.34,57.61,59.32,56.9Z"/><path d="M49.85,58.66v-33h2V53.34a1,1,0,0,1,.19.25c.37.75,1.85,1.55,4.89,1.55a4.54,4.54,0,0,0,2.32-.35c-.36-9.91-1.7-32.23-2.9-40.57a4.87,4.87,0,0,0-3.08-3.86L44.51,6.61l-3.78,3.78.57,16C41.45,30.62,41.58,35,40,39a17.77,17.77,0,0,1-6.74,8l-.1,15c9.62-.1,15.55-1.69,16.77-2.75A3.08,3.08,0,0,1,49.85,58.66Z"/><path d="M14.15,51.35v7.32c0,.11,0,.24,0,.36h0v0c.36,1,6.5,2.91,17,3l.09-13.79a25,25,0,0,1-3.77,1.61A38.55,38.55,0,0,1,14.15,51.35Z"/></g></g><g id="Highlight"><rect class="cls-7" x="34.2" y="4.73" width="8.38" height="4.29" transform="translate(6.39 29.16) rotate(-45)"/><rect class="cls-7" x="24.17" y="2.68" width="4.29" height="8.38" transform="translate(2.83 20.58) rotate(-44.91)"/><path class="cls-7" d="M59.35,58.66c0-.45,0-1,0-1.76a9.31,9.31,0,0,1-2.39.24,11.09,11.09,0,0,1-4.79-.89v2.42c0,.94,1.53,2,4.86,2,1.72,0,2.16-.32,2.25-.41s.13-.59.11-1.06C59.36,59,59.35,58.84,59.35,58.66Z"/><path class="cls-7" d="M4.68,56.82c0,.77,0,1.39,0,1.85,0,.18,0,.35,0,.53,0,.47,0,.91.11,1s.54.42,2.4.42c3.43,0,5-1,5-2V56.25a11.09,11.09,0,0,1-4.79.89A8.69,8.69,0,0,1,4.68,56.82Z"/><g class="cls-8"><path class="cls-3" d="M47,23.43a1,1,0,0,0-1-1H36.68a1,1,0,0,0-1,1V29A5.66,5.66,0,1,0,47,29Z"/></g><path class="cls-7" d="M37.68,29A3.66,3.66,0,1,0,45,29V24.43H37.68Z"/><path class="cls-7" d="M20.28,6.7h0l-9.54,3.67a4.89,4.89,0,0,0-3.09,3.86C6.54,21.9,5.37,40.56,4.89,51.36h0s0,0,0,.06c0,.7,0,1.28,0,1.72,0,.19,0,.36,0,.54,0,.46,0,.91.11,1s.54.41,2.4.41a12.06,12.06,0,0,0,2.55-.24,48.86,48.86,0,0,1-.56-8.81c0-1.69-.17-6.34.45-16.69.24-4.07.61-9.29,1.2-15.4q2.13-1.75,4.38-3.54C17,9.16,18.67,7.91,20.28,6.7Z"/></g></g></g></svg>