<svg xmlns="http://www.w3.org/2000/svg" version="1.1" xmlns:xlink="http://www.w3.org/1999/xlink" xmlns:svgjs="http://svgjs.dev/svgjs" width="1000" height="1000" viewBox="0 0 1000 1000"><rect width="1000" height="1000" fill="#5e89fd"></rect><g transform="matrix(0.7,0,0,0.7,149.57575757575756,282.1265587044535)"><svg viewBox="0 0 396 247" data-background-color="#5e89fd" preserveAspectRatio="xMidYMid meet" height="623" width="1000" xmlns="http://www.w3.org/2000/svg" xmlns:xlink="http://www.w3.org/1999/xlink"><g id="tight-bounds" transform="matrix(1,0,0,1,0.2400000000000091,-0.09999999999999432)"><svg viewBox="0 0 395.52 247.2" height="247.2" width="395.52"><g><svg></svg></g><g><svg viewBox="0 0 395.52 247.2" height="247.2" width="395.52"><g transform="matrix(1,0,0,1,72.61639508208188,37.08)"><svg viewBox="0 0 250.28720983583622 173.04" height="173.04" width="250.28720983583622"><g><svg viewBox="0 0 316.416 218.75917940797828" height="173.04" width="250.28720983583622"><g transform="matrix(1,0,0,1,0,135.2019490571488)"><svg viewBox="0 0 316.416 83.55723035082949" height="83.55723035082949" width="316.416"><g id="textblocktransform"><svg viewBox="0 0 316.416 83.55723035082949" height="83.55723035082949" width="316.416" id="textblock"><g><svg viewBox="0 0 316.416 83.55723035082949" height="83.55723035082949" width="316.416"><g transform="matrix(1,0,0,1,0,0)"><svg width="316.416" viewBox="3 -37.7 183.83 48.550000000000004" height="83.55723035082949" data-palette-color="#fdfbfb"><path d="M17.05-18.3Q20.4-17.55 22.33-15.63 24.25-13.7 24.25-9.9L24.25-9.9Q24.25-4.9 20.88-2.45 17.5 0 11.7 0L11.7 0 3 0 3-34.55 10.55-34.55Q16.5-34.55 19.75-32.3 23-30.05 23-25.75L23-25.75Q23-22.85 21.38-20.95 19.75-19.05 17.05-18.3L17.05-18.3ZM11.2-29.85L9.35-29.85 9.35-20.3 11.5-20.3Q16.55-20.3 16.55-25.2L16.55-25.2Q16.55-27.65 15.28-28.75 14-29.85 11.2-29.85L11.2-29.85ZM11.75-4.8Q14.65-4.8 16.15-6.03 17.65-7.25 17.65-10.15L17.65-10.15Q17.65-13.05 16.25-14.43 14.85-15.8 11.9-15.8L11.9-15.8 9.35-15.8 9.35-4.8 11.75-4.8ZM37.65-27.15Q42.65-27.15 45.42-23.65 48.2-20.15 48.2-13.25L48.2-13.25Q48.2-6.65 45.4-2.95 42.6 0.75 37.65 0.75L37.65 0.75Q32.7 0.75 29.9-2.88 27.1-6.5 27.1-13.25L27.1-13.25Q27.1-19.95 29.9-23.55 32.7-27.15 37.65-27.15L37.65-27.15ZM37.65-22.5Q35.5-22.5 34.5-20.38 33.5-18.25 33.5-13.25L33.5-13.25Q33.5-8.2 34.5-6.08 35.5-3.95 37.65-3.95L37.65-3.95Q39.8-3.95 40.8-6.08 41.8-8.2 41.8-13.25L41.8-13.25Q41.8-18.3 40.8-20.4 39.8-22.5 37.65-22.5L37.65-22.5ZM65.7-37.7L71.84-37.05 71.84 0 66.4 0 66.09-3.05Q63.75 0.75 60.05 0.75L60.05 0.75Q55.95 0.75 53.77-2.93 51.6-6.6 51.6-13.2L51.6-13.2Q51.6-17.4 52.72-20.58 53.85-23.75 55.85-25.45 57.85-27.15 60.45-27.15L60.45-27.15Q63.65-27.15 65.7-24.5L65.7-24.5 65.7-37.7ZM61.8-3.9Q62.95-3.9 63.87-4.7 64.8-5.5 65.7-7L65.7-7 65.7-19.85Q64.09-22.55 62.05-22.55L62.05-22.55Q58-22.55 58-13.25L58-13.25Q58-8.2 59-6.05 60-3.9 61.8-3.9L61.8-3.9ZM96.19-26.45L89.19 0.1Q87.89 4.9 84.99 7.65 82.09 10.4 77.24 10.85L77.24 10.85 76.54 6.5Q79.69 5.85 81.27 4.42 82.84 3 83.74 0L83.74 0 81.44 0 74.74-26.45 80.99-26.45 85.39-4.1 90.09-26.45 96.19-26.45ZM118.44-27.15Q120.59-27.15 122.34-26.43 124.09-25.7 125.69-24.15L125.69-24.15 123.04-20.65Q121.94-21.55 120.96-21.98 119.99-22.4 118.84-22.4L118.84-22.4Q116.59-22.4 115.44-20.28 114.29-18.15 114.29-13.1L114.29-13.1Q114.29-8.2 115.46-6.2 116.64-4.2 118.84-4.2L118.84-4.2Q119.94-4.2 120.84-4.6 121.74-5 122.94-5.85L122.94-5.85 125.69-2.3Q122.49 0.75 118.54 0.75L118.54 0.75Q113.44 0.75 110.61-2.73 107.79-6.2 107.79-13L107.79-13Q107.79-17.4 109.09-20.6 110.39-23.8 112.81-25.48 115.24-27.15 118.44-27.15L118.44-27.15ZM145.63-6.4Q145.63-5.1 145.99-4.48 146.34-3.85 147.13-3.45L147.13-3.45 145.88 0.65Q143.84 0.4 142.61-0.45 141.38-1.3 140.78-3.05L140.78-3.05Q138.49 0.75 134.34 0.75L134.34 0.75Q131.03 0.75 129.09-1.48 127.14-3.7 127.14-7.4L127.14-7.4Q127.14-11.7 129.81-13.95 132.49-16.2 137.59-16.2L137.59-16.2 139.63-16.2 139.63-18.05Q139.63-20.55 138.76-21.58 137.88-22.6 135.94-22.6L135.94-22.6Q133.59-22.6 130.09-21.3L130.09-21.3 128.69-25.3Q130.69-26.2 132.84-26.68 134.99-27.15 136.94-27.15L136.94-27.15Q145.63-27.15 145.63-18.35L145.63-18.35 145.63-6.4ZM135.99-3.7Q138.38-3.7 139.63-7L139.63-7 139.63-12.55 138.19-12.55Q135.63-12.55 134.46-11.4 133.28-10.25 133.28-7.85L133.28-7.85Q133.28-5.8 133.99-4.75 134.69-3.7 135.99-3.7L135.99-3.7ZM163.08-27.1Q164.23-27.1 165.13-26.75L165.13-26.75 164.13-20.85Q163.13-21.1 162.28-21.1L162.28-21.1Q160.38-21.1 159.28-19.45 158.18-17.8 157.58-14.55L157.58-14.55 157.58 0 151.43 0 151.43-26.45 156.78-26.45 157.23-21.85Q159.08-27.1 163.08-27.1L163.08-27.1ZM186.83-13.85Q186.83-13.4 186.68-11.3L186.68-11.3 173.03-11.3Q173.23-7.2 174.46-5.58 175.68-3.95 177.93-3.95L177.93-3.95Q179.48-3.95 180.73-4.48 181.98-5 183.43-6.15L183.43-6.15 185.98-2.65Q182.48 0.75 177.58 0.75L177.58 0.75Q172.38 0.75 169.61-2.85 166.83-6.45 166.83-13L166.83-13Q166.83-19.55 169.48-23.35 172.13-27.15 176.98-27.15L176.98-27.15Q181.63-27.15 184.23-23.78 186.83-20.4 186.83-13.85L186.83-13.85ZM180.83-15.3L180.83-15.65Q180.83-19.4 179.93-21.13 179.03-22.85 177.03-22.85L177.03-22.85Q175.18-22.85 174.21-21.18 173.23-19.5 173.03-15.3L173.03-15.3 180.83-15.3Z" opacity="1" transform="matrix(1,0,0,1,0,0)" fill="#fdfbfb" class="wordmark-text-0" data-fill-palette-color="primary" id="text-0"></path></svg></g></svg></g></svg></g></svg></g><g transform="matrix(1,0,0,1,121.74079668205184,0)"><svg viewBox="0 0 72.93440663589632 115.47609234484636" height="115.47609234484636" width="72.93440663589632"><g><svg xmlns="http://www.w3.org/2000/svg" xmlns:xlink="http://www.w3.org/1999/xlink" version="1.1" x="0" y="0" viewBox="23.619493853295914 8 53.18050614670408 84.19999999999999" enable-background="new 0 0 100 100" xml:space="preserve" height="115.47609234484636" width="72.93440663589632" class="icon-icon-0" data-fill-palette-color="accent" id="icon-0"><path d="M76.2 26.8c0-0.2 0-1-0.3-1.6-0.3-0.7-2.7-1.6-4.2-1.8-0.1 0-0.3 0-0.5 0-1.4 0-3.2 0.9-3.6 1-3.1-1.2-5.9-1.5-7.8-1.5-1.9 0-3.2 0.3-3.5 0.3-1.5-0.6-3.1-0.9-5-0.9-0.7 0-1.3 0-2 0.1-0.6 0.1-1.1 0.2-1.7 0-1.5-0.3-4.2-0.4-4.3-0.4 0 0 0 0 0 0-0.5 0-3.3-1.1-3.9-1.8-0.5-0.7-0.2-2.2-0.2-2.4 0-0.1 0.4-0.7 0.9-1.6 0.5-0.8 0.4-2.8 0.4-4.1 0-0.3 0-0.6 0-0.8 0-0.5-0.2-1.4-0.8-2.1C39.2 8.7 38.3 8 36.6 8c-3.1 0-3.7 2.3-3.9 3.1l0 0c-0.2 0.8 0.2 4.5 0.4 5.5 0.2 0.9 1 1.6 1 1.7v1.7c0 0.1-3.4 1.3-4.1 1.6-0.2 0-1.4 0-2.9 1.1-1.6 1.2-0.6 7.3-0.5 7.9-0.6 1.8-1.1 7.8-1.1 8.4-1.3 1.9-1.2 6-1.1 8.7 0 1 0 1.8 0 2.2-0.1 0.7-0.3 1.5-0.4 2.2-0.3 1.5-0.5 2.4-0.3 2.7 0.3 0.4 1.2 1.9 1.6 2.5 0.1 0.2 0.3 0.3 0.4 0.3 0.3 0 0.5-0.6 0.6-1.1 0.2-0.6-1.1-2-1.4-2.4 0.4-0.9 0.9-1.8 1-1.8 0.1 0 0.2 0.4 0.3 0.6 0.2 0.5 0.3 1.1 0.7 1.1 0 0 0.1 0 0.1 0 0.4-0.1 0.3-0.8 0.1-1.3-0.1-0.3-0.2-0.7-0.1-0.8 0.1-0.5-0.3-2.4-0.4-2.7 0.2-0.4 1.5-3.7 2.1-5.7 0.5-1.6 0.2-3.8 0.1-4.8 0-0.2 0-0.4 0-0.5 0 0 0-0.1 0.1-0.1 0.2-0.4 0.8-1.6 1.3-3.8 0.2-0.8 0.3-1.5 0.3-1.9 0.2 0.4 0.5 0.9 0.7 1.2 0.3 0.4 1.1 3 1.4 4.3L31 44.7v0c0 0-0.6 3.8-1.2 7.1-0.5 3.2 0.8 10.9 1 12 0.1 0.4-0.1 2.4-0.3 3.4-0.2 0.8 0.1 1.6 0.3 2 0 0.1 0.1 0.2 0.1 0.2 0 0.2 0.2 2.2 0.3 4.3 0.3 5.3 0.5 7.7 0.6 7.9 0.2 0.2 0.1 1.4-0.1 1.8 0 0.2-0.9 0.8-1.5 1.3-0.5 0.4-0.9 0.7-1.1 1-0.3 0.3-1.1 0.6-1.9 0.9-0.9 0.3-1.8 0.7-2.1 1-0.1 0.1-0.1 0.2-0.1 0.3 0.1 0.2 0.4 0.2 1 0.2 0.1 0 0.2 0 0.3 0 0.1 0 0.2 0 0.3 0 0.2 0 0.3 0.1 0.4 0.1 0.6 0 3.1-0.1 4.2-0.2 0.2 0 0.4 0 0.5 0 0.1 0 0.4 0 0.8 0 0.3 0 0.7 0 1 0 1.2 0 1.8-0.1 1.9-0.5 0.3-0.5-0.2-1.6-0.6-2.8-0.2-0.5-0.4-1-0.4-1.3-0.2-0.7 1-5.6 1.7-8.5 0.2-0.9 0.4-1.8 0.5-2.2 0.4-1.6-0.7-3.3-1.2-4.2-0.1-0.2-0.2-0.4-0.3-0.5-0.2-0.5 0-3 0.1-3.2 0.1-0.3 1.6-6.1 2-7.9 0.3-1.3-0.1-3-0.1-4.3 0-0.5-0.3-0.9-0.3-1.1v0c0-0.8 0.3-1.3 0.6-1.3 0.1 0 0.3 0 0.4 0.1 0.5 0.2 0.6 2.8 0.7 4.5 0 0.8 0 1.5 0.1 2 0.2 1.7 3.1 8 3.3 8.4l1 4.4c-0.1 0.3-0.9 1.8-0.9 2.6 0.2 2.9 1.4 5 2.2 6.6 0.2 0.4 0.5 0.8 0.6 1.2 0.6 1.4 0.8 3.3 0.5 5-0.3 1.5 0.2 2.2 0.6 2.8 0.1 0.1 0.2 0.2 0.2 0.3 0.5 0.8 1 3.8 1 3.8 0 0 0.1 0.1 0.1 0.1 0 0 0.8 0.2 1.7 0.2 0.5 0 1-0.1 1.4-0.2 1.6-0.5 1.9-1.9 1.9-2 0-0.2-0.4-0.9-2.1-3.5-0.5-0.7-0.9-1.4-1-1.6-0.4-0.7-1.2-4.3-1.2-4.6 0.8-6.4-0.6-9.4-0.9-9.9C47 69.9 47 69.4 47 68.8c0-0.3 0-0.6 0-0.9-0.1-1-0.1-4.3-0.1-4.5 1-6.9-0.6-10.6-1.7-13-0.4-0.8-0.6-1.4-0.7-2C44.2 47 44.2 46 44.3 45c0-0.5 0-1.1 0-1.7 0-1-0.7-2.1-1.2-3.2-0.5-0.8-0.9-1.6-1-2.2-0.2-1.4 2-6.7 2-6.8l1.4-4c0.5 0 2.9 0.3 5.4 0.3 3.5 0 5.6-0.5 6.2-1.3 1.8 0.7 3.5 1 5.3 1 2.9 0 4.9-0.9 5.2-1.1 0.5 0.2 3.6 1.4 4.1 1.4 0 0 0 0 0.1 0 0.2 0 1-0.3 1.1-0.7 0-0.1 0-0.3-0.1-0.4C72.6 26 72.5 26 72.4 26c-0.1 0-0.2 0.1-0.2 0.1-0.1 0-0.1 0.1-0.2 0.1-0.2 0-0.5-0.2-0.7-0.3 0.7 0.1 1.7 0.2 2 0.3 0.4 0.2 1.2 0.8 1.5 1 0 0.1-0.1 0.4-0.1 0.7 0 0.2 0.1 0.2 0.3 0.2 0.2 0 0.5-0.2 0.7-0.2 0.1 0.1 0.4 0.2 0.7 0.2 0.1 0 0.2 0 0.3-0.1 0.1 0 0.1-0.1 0.1-0.2C76.7 27.4 76.3 27 76.2 26.8z" fill="#fc3f3f" data-fill-palette-color="accent"></path></svg></g></svg></g><g></g></svg></g></svg></g><g><path d="M0 247.2v-247.2h395.52v247.2zM389.56 241.24v-235.28h-383.6v235.28z" fill="#000000" fill-rule="nonzero" stroke="none" stroke-width="1" stroke-linecap="butt" stroke-linejoin="miter" stroke-miterlimit="10" stroke-dasharray="" stroke-dashoffset="0" font-family="none" font-weight="none" font-size="none" text-anchor="none" style="mix-blend-mode: normal" data-fill-palette-color="tertiary"></path></g></svg></g><defs></defs></svg><rect width="395.52" height="247.2" fill="none" stroke="none" visibility="hidden"></rect></g></svg></g></svg>