<svg xmlns="http://www.w3.org/2000/svg" version="1.1" xmlns:xlink="http://www.w3.org/1999/xlink" xmlns:svgjs="http://svgjs.dev/svgjs" width="1000" height="1000" viewBox="0 0 1000 1000"><rect width="1000" height="1000" fill="#1b4571"></rect><g transform="matrix(0.7,0,0,0.7,150.43505340018748,250.65206477732792)"><svg viewBox="0 0 346 247" data-background-color="#1b4571" preserveAspectRatio="xMidYMid meet" height="713" width="1000" xmlns="http://www.w3.org/2000/svg" xmlns:xlink="http://www.w3.org/1999/xlink"><g id="tight-bounds" transform="matrix(1,0,0,1,-0.2150406806641172,-0.09999999999999432)"><svg viewBox="0 0 346.43008136132823 247.2" height="247.2" width="346.43008136132823"><g><svg viewBox="0 0 395.52 282.22879380391555" height="247.2" width="346.43008136132823"><g transform="matrix(1,0,0,1,0,174.42871702848367)"><svg viewBox="0 0 395.52 107.80007677543186" height="107.80007677543186" width="395.52"><g id="textblocktransform"><svg viewBox="0 0 395.52 107.80007677543186" height="107.80007677543186" width="395.52" id="textblock"><g><svg viewBox="0 0 395.52 107.80007677543186" height="107.80007677543186" width="395.52"><g transform="matrix(1,0,0,1,0,0)"><svg width="395.52" viewBox="3 -35 130.24 35.5" height="107.80007677543186" data-palette-color="#ffffff"><path d="M3-17.5L3-17.5Q3.05-25.85 7.63-30.43 12.2-35 20.25-35L20.25-35 23.5-35 23.5-30.6 19.65-30.6Q14.1-30.6 11.13-26.93 8.15-23.25 8.05-17.5L8.05-17.5Q8.15-11.75 11.13-8.08 14.1-4.4 19.65-4.4L19.65-4.4 23.5-4.4 23.5 0 20.25 0Q12.2 0 7.63-4.58 3.05-9.15 3-17.5ZM29.25-9.5L29.25-9.5 29.25-35 33.75-35 33.75-9.5Q33.75-7.7 34.17-6.58 34.6-5.45 35.5-4.98 36.4-4.5 37.25-4.35 38.1-4.2 39.5-4.2L39.5-4.2 39.5 0Q33.9 0 31.57-2.15 29.25-4.3 29.25-9.5ZM45.5-20.85L45.5-20.85Q49-24.5 54.25-24.5L54.25-24.5Q56.8-24.5 59.02-23.53 61.25-22.55 62.92-20.85 64.59-19.15 65.55-16.88 66.5-14.6 66.5-12L66.5-12Q66.5-9.4 65.57-7.13 64.65-4.85 63-3.15 61.35-1.45 59.1-0.48 56.85 0.5 54.25 0.5L54.25 0.5Q51.6 0.5 49.37-0.48 47.15-1.45 45.5-3.15 43.85-4.85 42.92-7.13 42-9.4 42-12L42-12Q42-17.3 45.5-20.85ZM54.25-20.3L54.25-20.3Q50.75-20.3 48.62-18 46.5-15.7 46.5-12 46.5-8.3 48.62-6 50.75-3.7 54.25-3.7L54.25-3.7Q57.8-3.7 59.9-6.03 62-8.35 62-12 62-15.65 59.9-17.98 57.8-20.3 54.25-20.3ZM73.69-19.8L69.24-19.8 78.19-28.75 78.19-24 84.94-24 84.94-19.8 78.19-19.8 78.19-9.5Q78.19-7.75 78.77-6.6 79.34-5.45 80.44-4.98 81.54-4.5 82.52-4.35 83.49-4.2 84.94-4.2L84.94-4.2 84.94 0Q79.19 0 76.44-2.2 73.69-4.4 73.69-9.5L73.69-9.5 73.69-19.8ZM89.69-35L94.09-35 94.09-24 98.34-24Q103.89-24 106.29-22.35L106.29-22.35Q108.44-20.9 109.02-18.88 109.59-16.85 109.59-13.55L109.59-13.55 109.59 0 105.19 0 105.19-13.5Q105.19-14.4 105.14-15.03 105.09-15.65 104.79-16.63 104.49-17.6 103.94-18.23 103.39-18.85 102.34-19.33 101.29-19.8 99.79-19.8L99.79-19.8 94.09-19.8 94.09 0 89.69 0 89.69-35ZM123.39-24L132.24-24 132.24-19.8 123.39-19.8Q121.94-19.8 120.89-19.25 119.84-18.7 119.84-17.7L119.84-17.7Q119.84-17.1 120.09-16.63 120.34-16.15 120.66-15.85 120.99-15.55 121.66-15.23 122.34-14.9 122.71-14.78 123.09-14.65 125.89-13.75 128.69-12.85 130.04-12.25 131.39-11.65 132.11-10.63 132.84-9.6 133.04-8.63 133.24-7.65 133.24-6.7L133.24-6.7Q133.24 0 124.04 0L124.04 0 115.39 0 115.39-4.2 124.04-4.2Q128.74-4.2 128.74-6.7L128.74-6.7Q128.74-7.9 127.36-8.7 125.99-9.5 124.01-10.05 122.04-10.6 120.06-11.33 118.09-12.05 116.71-13.68 115.34-15.3 115.34-17.7L115.34-17.7Q115.34-20.75 117.69-22.38 120.04-24 123.39-24L123.39-24Z" opacity="1" transform="matrix(1,0,0,1,0,0)" fill="#ffffff" class="wordmark-text-0" data-fill-palette-color="primary" id="text-0"></path></svg></g></svg></g></svg></g></svg></g><g transform="matrix(1,0,0,1,151.24186119938344,0)"><svg viewBox="0 0 93.0362776012331 148.97970610364683" height="148.97970610364683" width="93.0362776012331"><g><svg xmlns="http://www.w3.org/2000/svg" xmlns:xlink="http://www.w3.org/1999/xlink" version="1.1" x="0" y="0" viewBox="11 2 30.000000000000007 48.03923048454132" style="enable-background:new 0 0 52 52;" xml:space="preserve" height="148.97970610364683" width="93.0362776012331" class="icon-icon-0" data-fill-palette-color="accent" id="icon-0"><g fill="#bf2051" data-fill-palette-color="accent"><polygon points="41,16.2 41,11 36.8,11  " fill="#bf2051" data-fill-palette-color="accent"></polygon><polygon points="11,11 11,16.2 15.2,11  " fill="#bf2051" data-fill-palette-color="accent"></polygon><path d="M27 11v4.9c0 0.6-0.4 1-1 1s-1-0.4-1-1V11h-6.4L11 20.5V49c0 0.3 0.1 0.6 0.4 0.8 0.2 0.2 0.5 0.3 0.8 0.2l12-2c0.5-0.1 0.8-0.5 0.8-1V24c0-0.2 0-1.6 1-1.6 0.5 0 1 0.1 1 1.2V47c0 0.5 0.4 0.9 0.8 1l12 2c0 0 0.1 0 0.2 0 0.2 0 0.5-0.1 0.7-0.2 0.2-0.2 0.3-0.5 0.3-0.8V20.6L33.4 11H27z" fill="#bf2051" data-fill-palette-color="accent"></path><polygon points="11.1,2 11.1,9 13.1,9 39,9 41,9 41,2  " fill="#bf2051" data-fill-palette-color="accent"></polygon></g></svg></g></svg></g><g></g></svg></g><defs></defs></svg><rect width="346.43008136132823" height="247.2" fill="none" stroke="none" visibility="hidden"></rect></g></svg></g></svg>