<svg xmlns="http://www.w3.org/2000/svg" version="1.1" xmlns:xlink="http://www.w3.org/1999/xlink" xmlns:svgjs="http://svgjs.dev/svgjs" width="1000" height="1000" viewBox="0 0 1000 1000"><rect width="1000" height="1000" fill="#050ca0"></rect><g transform="matrix(0.7,0,0,0.7,150,281.25)"><svg viewBox="0 0 512 320" data-background-color="#050ca0" preserveAspectRatio="xMidYMid meet" height="625" width="1000" xmlns="http://www.w3.org/2000/svg" xmlns:xlink="http://www.w3.org/1999/xlink"><g id="tight-bounds" transform="matrix(1,0,0,1,0,0)"><svg viewBox="0 0 512 320" height="320" width="512"><g><svg></svg></g><g><svg viewBox="0 0 512 320" height="320" width="512"><g><path d="M96 320l0-320 320 0 0 320zM411.916 315.916l0-311.832-311.832 0 0 311.832z" fill="#000000" fill-rule="nonzero" stroke="none" stroke-width="1" stroke-linecap="butt" stroke-linejoin="miter" stroke-miterlimit="10" stroke-dasharray="" stroke-dashoffset="0" font-family="none" font-weight="none" font-size="none" text-anchor="none" style="mix-blend-mode: normal" data-fill-palette-color="tertiary"></path></g><g transform="matrix(1,0,0,1,140.8,100.72130795387983)"><svg viewBox="0 0 230.4 118.55738409224035" height="118.55738409224035" width="230.4"><g><svg viewBox="0 0 230.4 118.55738409224035" height="118.55738409224035" width="230.4"><g transform="matrix(1,0,0,1,0,73.27321965536368)"><svg viewBox="0 0 230.4 45.28416443687668" height="45.28416443687668" width="230.4"><g id="textblocktransform"><svg viewBox="0 0 230.4 45.28416443687668" height="45.28416443687668" width="230.4" id="textblock"><g><svg viewBox="0 0 230.4 45.28416443687668" height="45.28416443687668" width="230.4"><g transform="matrix(1,0,0,1,0,0)"><svg width="230.4" viewBox="3 -39.65 205.53 40.4" height="45.28416443687668" data-palette-color="#ffffff"><path d="M3-34.55L20.15-34.55 19.5-29.8 9.35-29.8 9.35-19.9 18.2-19.9 18.2-15.2 9.35-15.2 9.35-4.8 20.15-4.8 20.15 0 3 0 3-34.55ZM30.1 0.75Q27.4 0.75 25.82-0.93 24.25-2.6 24.25-5.4L24.25-5.4 24.25-37.05 30.4-37.7 30.4-5.65Q30.4-5 30.7-4.6 31-4.2 31.6-4.2L31.6-4.2Q31.95-4.2 32.27-4.3 32.6-4.4 32.7-4.4L32.7-4.4 33.9-0.2Q32.2 0.75 30.1 0.75L30.1 0.75ZM55.8-13.85Q55.8-13.4 55.65-11.3L55.65-11.3 42-11.3Q42.2-7.2 43.42-5.58 44.65-3.95 46.9-3.95L46.9-3.95Q48.45-3.95 49.7-4.48 50.95-5 52.4-6.15L52.4-6.15 54.95-2.65Q51.45 0.75 46.55 0.75L46.55 0.75Q41.35 0.75 38.57-2.85 35.8-6.45 35.8-13L35.8-13Q35.8-19.55 38.45-23.35 41.1-27.15 45.95-27.15L45.95-27.15Q50.6-27.15 53.2-23.78 55.8-20.4 55.8-13.85L55.8-13.85ZM49.8-15.3L49.8-15.65Q49.8-19.4 48.9-21.13 48-22.85 46-22.85L46-22.85Q44.15-22.85 43.17-21.18 42.2-19.5 42-15.3L42-15.3 49.8-15.3ZM69.59-27.15Q71.74-27.15 73.49-26.43 75.24-25.7 76.84-24.15L76.84-24.15 74.19-20.65Q73.09-21.55 72.12-21.98 71.14-22.4 69.99-22.4L69.99-22.4Q67.74-22.4 66.59-20.28 65.44-18.15 65.44-13.1L65.44-13.1Q65.44-8.2 66.62-6.2 67.79-4.2 69.99-4.2L69.99-4.2Q71.09-4.2 71.99-4.6 72.89-5 74.09-5.85L74.09-5.85 76.84-2.3Q73.64 0.75 69.69 0.75L69.69 0.75Q64.59 0.75 61.77-2.73 58.94-6.2 58.94-13L58.94-13Q58.94-17.4 60.24-20.6 61.54-23.8 63.97-25.48 66.39-27.15 69.59-27.15L69.59-27.15ZM91.04-5L93.19-1.2Q90.74 0.75 87.44 0.75L87.44 0.75Q83.99 0.75 82.19-1.23 80.39-3.2 80.39-6.6L80.39-6.6 80.39-22 77.29-22 77.29-26.45 80.39-26.45 80.39-32.3 86.54-33.05 86.54-26.45 91.54-26.45 90.94-22 86.54-22 86.54-6.6Q86.54-4.2 88.59-4.2L88.59-4.2Q89.24-4.2 89.74-4.38 90.24-4.55 91.04-5L91.04-5ZM107.39-27.1Q108.54-27.1 109.44-26.75L109.44-26.75 108.44-20.85Q107.44-21.1 106.59-21.1L106.59-21.1Q104.69-21.1 103.59-19.45 102.49-17.8 101.89-14.55L101.89-14.55 101.89 0 95.74 0 95.74-26.45 101.09-26.45 101.54-21.85Q103.39-27.1 107.39-27.1L107.39-27.1ZM121.69-27.15Q126.69-27.15 129.46-23.65 132.24-20.15 132.24-13.25L132.24-13.25Q132.24-6.65 129.44-2.95 126.64 0.75 121.69 0.75L121.69 0.75Q116.74 0.75 113.94-2.88 111.14-6.5 111.14-13.25L111.14-13.25Q111.14-19.95 113.94-23.55 116.74-27.15 121.69-27.15L121.69-27.15ZM121.69-22.5Q119.54-22.5 118.54-20.38 117.54-18.25 117.54-13.25L117.54-13.25Q117.54-8.2 118.54-6.08 119.54-3.95 121.69-3.95L121.69-3.95Q123.84-3.95 124.84-6.08 125.84-8.2 125.84-13.25L125.84-13.25Q125.84-18.3 124.84-20.4 123.84-22.5 121.69-22.5L121.69-22.5ZM149.13-27.15Q151.98-27.15 153.63-25.1 155.28-23.05 155.28-19.6L155.28-19.6 155.28 0 149.13 0 149.13-18.9Q149.13-20.8 148.61-21.63 148.08-22.45 147.08-22.45L147.08-22.45Q144.98-22.45 142.93-18.5L142.93-18.5 142.93 0 136.78 0 136.78-26.45 142.13-26.45 142.58-23Q143.93-25.1 145.46-26.13 146.98-27.15 149.13-27.15L149.13-27.15ZM160.83-26.45L166.98-26.45 166.98 0 160.83 0 160.83-26.45ZM163.88-39.65Q165.53-39.65 166.56-38.6 167.58-37.55 167.58-35.9L167.58-35.9Q167.58-34.3 166.56-33.25 165.53-32.2 163.88-32.2L163.88-32.2Q162.23-32.2 161.21-33.25 160.18-34.3 160.18-35.9L160.18-35.9Q160.18-37.55 161.21-38.6 162.23-39.65 163.88-39.65L163.88-39.65ZM182.18-27.15Q184.33-27.15 186.08-26.43 187.83-25.7 189.43-24.15L189.43-24.15 186.78-20.65Q185.68-21.55 184.7-21.98 183.73-22.4 182.58-22.4L182.58-22.4Q180.33-22.4 179.18-20.28 178.03-18.15 178.03-13.1L178.03-13.1Q178.03-8.2 179.2-6.2 180.38-4.2 182.58-4.2L182.58-4.2Q183.68-4.2 184.58-4.6 185.48-5 186.68-5.85L186.68-5.85 189.43-2.3Q186.23 0.75 182.28 0.75L182.28 0.75Q177.18 0.75 174.35-2.73 171.53-6.2 171.53-13L171.53-13Q171.53-17.4 172.83-20.6 174.13-23.8 176.55-25.48 178.98-27.15 182.18-27.15L182.18-27.15ZM199.83-27.15Q204.53-27.15 207.78-24.05L207.78-24.05 205.43-20.7Q204.03-21.7 202.78-22.2 201.53-22.7 200.23-22.7L200.23-22.7Q198.78-22.7 197.95-21.93 197.13-21.15 197.13-19.8L197.13-19.8Q197.13-18.45 198.05-17.63 198.98-16.8 201.78-15.7L201.78-15.7Q205.23-14.35 206.88-12.5 208.53-10.65 208.53-7.55L208.53-7.55Q208.53-3.7 205.83-1.48 203.13 0.75 198.98 0.75L198.98 0.75Q196.28 0.75 194-0.23 191.73-1.2 190.03-2.95L190.03-2.95 193.03-6.25Q195.83-3.8 198.73-3.8L198.73-3.8Q200.38-3.8 201.33-4.67 202.28-5.55 202.28-7.1L202.28-7.1Q202.28-8.25 201.88-8.97 201.48-9.7 200.48-10.33 199.48-10.95 197.48-11.7L197.48-11.7Q194.03-13.05 192.55-14.85 191.08-16.65 191.08-19.45L191.08-19.45Q191.08-22.8 193.45-24.98 195.83-27.15 199.83-27.15L199.83-27.15Z" opacity="1" transform="matrix(1,0,0,1,0,0)" fill="#ffffff" class="wordmark-text-0" data-fill-palette-color="primary" id="text-0"></path></svg></g></svg></g></svg></g></svg></g><g transform="matrix(1,0,0,1,90.88902215219954,0)"><svg viewBox="0 0 48.62195569560093 62.582715251763574" height="62.582715251763574" width="48.62195569560093"><g><svg xmlns="http://www.w3.org/2000/svg" xmlns:xlink="http://www.w3.org/1999/xlink" version="1.1" x="0" y="0" viewBox="49 20 202 260" enable-background="new 0 0 300 300" xml:space="preserve" height="62.582715251763574" width="48.62195569560093" class="icon-icon-0" data-fill-palette-color="accent" id="icon-0"><path d="M226.1 104c13.8 0 24.9-11.5 24.9-25.3V41h-7V20h-48v21h-8v37.7c0 13.8 11.7 25.3 25.5 25.3h1.5v18.2c-14.4-10.6-32.2-16.8-51.5-16.8-33.7 0-63 19.2-77.5 47.2V104h0.5c13.8 0 25.5-11.5 25.5-25.3V41h-8V20H56v21h-7v37.7C49 92.5 60.1 104 73.9 104H76v89h0.2c0.2 48 39.3 87 87.3 87 48.1 0 87.3-39.2 87.3-87.3 0-24.2-9.9-46.1-25.8-61.9V104H226.1zM66 30h28v11H66V30zM59 78.7V51h43v27.7C102 87 94.8 94 86.5 94H73.9C65.6 94 59 87 59 78.7zM111.5 190.8c1-27.8 23.9-50.2 52-50.2 26.1 0 47.8 19.3 51.5 44.4V198h0.3c-2.7 26.2-24.9 46.7-51.8 46.7-28.6 0-52-23.3-52-51.9C111.5 192.2 111.5 191.5 111.5 190.8zM215 158.1c-11.2-16.5-30.1-27.5-51.5-27.5-13.2 0-25.5 4.2-35.6 11.3 3-3.7 6.3-7.3 10-10.6 11.7-10.3 23.7-15 26.4-15.9 19.4 0.2 37.1 7.6 50.6 19.7V158.1zM240.8 192.7c0 42.6-34.7 77.3-77.3 77.3-42.6 0-77.3-34.7-77.3-77.3 0-32.5 20.1-60.3 48.6-71.8-1 0.8-2.1 1.7-3.1 2.6-13.7 12-30 33.2-30.2 68.8 0 0.1 0 0.3 0 0.4 0 0 0 0.1 0 0.1 0 0.1 0 0.1 0 0.2h0c0.2 34.1 27.9 61.7 62 61.7 34.2 0 62-27.8 62-62 0-2.8-0.2-5.5-0.6-8.2v-38.6C234.9 158.9 240.8 175.1 240.8 192.7zM206 30h28v11h-28V30zM198 78.7V51h43v27.7c0 8.3-6.6 15.3-14.9 15.3h-12.6C205.2 94 198 87 198 78.7z" fill="#f64a4a" data-fill-palette-color="accent"></path></svg></g></svg></g><g></g></svg></g></svg></g></svg></g><defs></defs></svg><rect width="512" height="320" fill="none" stroke="none" visibility="hidden"></rect></g></svg></g></svg>