<svg xmlns="http://www.w3.org/2000/svg" version="1.1" xmlns:xlink="http://www.w3.org/1999/xlink" xmlns:svgjs="http://svgjs.dev/svgjs" width="1000" height="1000" viewBox="0 0 1000 1000"><rect width="1000" height="1000" fill="#3679ff"></rect><g transform="matrix(0.7,0,0,0.7,150,281.25)"><svg viewBox="0 0 512 320" data-background-color="#3679ff" preserveAspectRatio="xMidYMid meet" height="625" width="1000" xmlns="http://www.w3.org/2000/svg" xmlns:xlink="http://www.w3.org/1999/xlink"><g id="tight-bounds" transform="matrix(1,0,0,1,0,0)"><svg viewBox="0 0 512 320" height="320" width="512"><g><svg></svg></g><g><svg viewBox="0 0 512 320" height="320" width="512"><g><path d="M96 320l0-320 320 0 0 320zM411.824 315.824l0-311.648-311.648 0 0 311.648z" fill="#000000" fill-rule="nonzero" stroke="none" stroke-width="1" stroke-linecap="butt" stroke-linejoin="miter" stroke-miterlimit="10" stroke-dasharray="" stroke-dashoffset="0" font-family="none" font-weight="none" font-size="none" text-anchor="none" style="mix-blend-mode: normal" data-fill-palette-color="tertiary"></path></g><g transform="matrix(1,0,0,1,140.8,99.38762801844577)"><svg viewBox="0 0 230.4 121.22474396310847" height="121.22474396310847" width="230.4"><g><svg viewBox="0 0 230.4 121.22474396310847" height="121.22474396310847" width="230.4"><g transform="matrix(1,0,0,1,0,74.921755064731)"><svg viewBox="0 0 230.4 46.30298889837746" height="46.30298889837746" width="230.4"><g id="textblocktransform"><svg viewBox="0 0 230.4 46.30298889837746" height="46.30298889837746" width="230.4" id="textblock"><g><svg viewBox="0 0 230.4 46.30298889837746" height="46.30298889837746" width="230.4"><g transform="matrix(1,0,0,1,0,0)"><svg width="230.4" viewBox="3 -34.55 175.63 35.3" height="46.30298889837746" data-palette-color="#fffbfb"><path d="M9.35 0L3 0 3-34.55 19.7-34.55 19-29.8 9.35-29.8 9.35-19.25 17.75-19.25 17.75-14.5 9.35-14.5 9.35 0ZM32.4-27.15Q37.4-27.15 40.17-23.65 42.95-20.15 42.95-13.25L42.95-13.25Q42.95-6.65 40.15-2.95 37.35 0.75 32.4 0.75L32.4 0.75Q27.45 0.75 24.65-2.88 21.85-6.5 21.85-13.25L21.85-13.25Q21.85-19.95 24.65-23.55 27.45-27.15 32.4-27.15L32.4-27.15ZM32.4-22.5Q30.25-22.5 29.25-20.38 28.25-18.25 28.25-13.25L28.25-13.25Q28.25-8.2 29.25-6.08 30.25-3.95 32.4-3.95L32.4-3.95Q34.55-3.95 35.55-6.08 36.55-8.2 36.55-13.25L36.55-13.25Q36.55-18.3 35.55-20.4 34.55-22.5 32.4-22.5L32.4-22.5ZM56.9-27.15Q61.9-27.15 64.67-23.65 67.45-20.15 67.45-13.25L67.45-13.25Q67.45-6.65 64.65-2.95 61.84 0.75 56.9 0.75L56.9 0.75Q51.95 0.75 49.15-2.88 46.35-6.5 46.35-13.25L46.35-13.25Q46.35-19.95 49.15-23.55 51.95-27.15 56.9-27.15L56.9-27.15ZM56.9-22.5Q54.75-22.5 53.75-20.38 52.75-18.25 52.75-13.25L52.75-13.25Q52.75-8.2 53.75-6.08 54.75-3.95 56.9-3.95L56.9-3.95Q59.05-3.95 60.05-6.08 61.05-8.2 61.05-13.25L61.05-13.25Q61.05-18.3 60.05-20.4 59.05-22.5 56.9-22.5L56.9-22.5ZM83.14-5L85.29-1.2Q82.84 0.75 79.54 0.75L79.54 0.75Q76.09 0.75 74.29-1.23 72.49-3.2 72.49-6.6L72.49-6.6 72.49-22 69.39-22 69.39-26.45 72.49-26.45 72.49-32.3 78.64-33.05 78.64-26.45 83.64-26.45 83.04-22 78.64-22 78.64-6.6Q78.64-4.2 80.69-4.2L80.69-4.2Q81.34-4.2 81.84-4.38 82.34-4.55 83.14-5L83.14-5ZM109.89-26.45L115.59-26.45 111.04 0 103.54 0 100.59-20.85 97.69 0 90.24 0 85.59-26.45 91.54-26.45 94.24-4.6 97.59-26.45 103.84-26.45 107.04-4.6 109.89-26.45ZM137.94-13.85Q137.94-13.4 137.79-11.3L137.79-11.3 124.14-11.3Q124.34-7.2 125.56-5.58 126.79-3.95 129.04-3.95L129.04-3.95Q130.59-3.95 131.84-4.48 133.09-5 134.54-6.15L134.54-6.15 137.09-2.65Q133.59 0.75 128.69 0.75L128.69 0.75Q123.49 0.75 120.71-2.85 117.94-6.45 117.94-13L117.94-13Q117.94-19.55 120.59-23.35 123.24-27.15 128.09-27.15L128.09-27.15Q132.74-27.15 135.34-23.78 137.94-20.4 137.94-13.85L137.94-13.85ZM131.94-15.3L131.94-15.65Q131.94-19.4 131.04-21.13 130.14-22.85 128.14-22.85L128.14-22.85Q126.29-22.85 125.31-21.18 124.34-19.5 124.14-15.3L124.14-15.3 131.94-15.3ZM159.14-6.4Q159.14-5.1 159.49-4.48 159.84-3.85 160.64-3.45L160.64-3.45 159.39 0.65Q157.34 0.4 156.11-0.45 154.89-1.3 154.29-3.05L154.29-3.05Q151.99 0.75 147.84 0.75L147.84 0.75Q144.54 0.75 142.59-1.48 140.64-3.7 140.64-7.4L140.64-7.4Q140.64-11.7 143.31-13.95 145.99-16.2 151.09-16.2L151.09-16.2 153.14-16.2 153.14-18.05Q153.14-20.55 152.26-21.58 151.39-22.6 149.44-22.6L149.44-22.6Q147.09-22.6 143.59-21.3L143.59-21.3 142.19-25.3Q144.19-26.2 146.34-26.68 148.49-27.15 150.44-27.15L150.44-27.15Q159.14-27.15 159.14-18.35L159.14-18.35 159.14-6.4ZM149.49-3.7Q151.89-3.7 153.14-7L153.14-7 153.14-12.55 151.69-12.55Q149.14-12.55 147.96-11.4 146.79-10.25 146.79-7.85L146.79-7.85Q146.79-5.8 147.49-4.75 148.19-3.7 149.49-3.7L149.49-3.7ZM176.58-27.1Q177.73-27.1 178.63-26.75L178.63-26.75 177.63-20.85Q176.63-21.1 175.78-21.1L175.78-21.1Q173.88-21.1 172.78-19.45 171.68-17.8 171.08-14.55L171.08-14.55 171.08 0 164.93 0 164.93-26.45 170.28-26.45 170.73-21.85Q172.58-27.1 176.58-27.1L176.58-27.1Z" opacity="1" transform="matrix(1,0,0,1,0,0)" fill="#fffbfb" class="wordmark-text-0" data-fill-palette-color="primary" id="text-0"></path></svg></g></svg></g></svg></g></svg></g><g transform="matrix(1,0,0,1,60.567961524630846,0)"><svg viewBox="0 0 109.26407695073831 63.99073065755765" height="63.99073065755765" width="109.26407695073831"><g><svg xmlns="http://www.w3.org/2000/svg" xmlns:xlink="http://www.w3.org/1999/xlink" version="1.1" x="0" y="0" viewBox="2 11.9443504 48 28.111298400000003" enable-background="new 0 0 52 52" xml:space="preserve" height="63.99073065755765" width="109.26407695073831" class="icon-icon-0" data-fill-palette-color="accent" id="icon-0"><g fill="#f63d3d" data-fill-palette-color="accent"><g fill="#f63d3d" data-fill-palette-color="accent"><path d="M36.385 40.056c-0.619 0-1.107-0.011-1.415-0.02H5.207C3.438 40.036 2 38.598 2 36.83v-3.794h33c4.335 0.127 11.69-0.419 13.093-2.435l0.419-0.603 1.456 0.417L50 31.198v5.114l-0.141 0.235C47.99 39.69 39.992 40.056 36.385 40.056zM4 35.036v1.794c0 0.665 0.541 1.206 1.207 1.206H35c4.604 0.136 11.481-0.497 13-2.314V33.156c-3.976 2.078-11.979 1.911-13.03 1.88H4z" fill="#f63d3d" data-fill-palette-color="accent"></path></g><g fill="#f63d3d" data-fill-palette-color="accent"><path d="M3.997 34.107l-1.994-0.142 1-13.999L3 12.571l0.812-0.621 0.503 0.138c0.259 0.082 6.018 1.848 14.455-0.025l0.537-0.119 0.404 0.389c0.363 0.322 9.962 8.817 19.485 10.723 0.442 0.088 10.844 2.228 10.801 7.993l-2-0.016c0.025-3.42-6.627-5.503-9.193-6.016-9.082-1.816-18.118-9.214-20.086-10.9C12.203 15.494 7.248 14.812 5 14.325V20.036L3.997 34.107z" fill="#f63d3d" data-fill-palette-color="accent"></path></g><g fill="#f63d3d" data-fill-palette-color="accent"><rect x="20.6477623" y="16.1263409" transform="matrix(0.7395393 -0.6731133 0.6731133 0.7395393 -5.7975874 19.2690868)" width="2.7043469" height="1.9992175" fill="#f63d3d" data-fill-palette-color="accent"></rect></g><g fill="#f63d3d" data-fill-palette-color="accent"><rect x="24.6140347" y="19.0364075" transform="matrix(0.7404649 -0.6720951 0.6720951 0.7404649 -6.6916451 22.7434406)" width="2.9769523" height="1.999386" fill="#f63d3d" data-fill-palette-color="accent"></rect></g><g fill="#f63d3d" data-fill-palette-color="accent"><rect x="29.438097" y="21.8358898" transform="matrix(0.640268 -0.7681516 0.7681516 0.640268 -6.3901672 32.0276451)" width="3.1236773" height="2.0010691" fill="#f63d3d" data-fill-palette-color="accent"></rect></g><g fill="#f63d3d" data-fill-palette-color="accent"><path d="M12 29.036c-2.206 0-4-2.243-4-5 0-2.757 1.794-5 4-5 2.206 0 4 2.243 4 5C16 26.793 14.206 29.036 12 29.036zM12 21.036c-1.084 0-2 1.374-2 3s0.916 3 2 3 2-1.374 2-3S13.084 21.036 12 21.036z" fill="#f63d3d" data-fill-palette-color="accent"></path></g></g></svg></g></svg></g><g></g></svg></g></svg></g></svg></g><defs></defs></svg><rect width="512" height="320" fill="none" stroke="none" visibility="hidden"></rect></g></svg></g></svg>