<svg xmlns="http://www.w3.org/2000/svg" version="1.1" xmlns:xlink="http://www.w3.org/1999/xlink" xmlns:svgjs="http://svgjs.dev/svgjs" width="1000" height="1000" viewBox="0 0 1000 1000"><rect width="1000" height="1000" fill="#3679ff"></rect><g transform="matrix(0.7,0,0,0.7,150,281.25)"><svg viewBox="0 0 512 320" data-background-color="#3679ff" preserveAspectRatio="xMidYMid meet" height="625" width="1000" xmlns="http://www.w3.org/2000/svg" xmlns:xlink="http://www.w3.org/1999/xlink"><g id="tight-bounds" transform="matrix(1,0,0,1,0,0)"><svg viewBox="0 0 512 320" height="320" width="512"><g><svg></svg></g><g><svg viewBox="0 0 512 320" height="320" width="512"><g><path d="M96 160c0-88.366 71.634-160 160-160 88.366 0 160 71.634 160 160 0 88.366-71.634 160-160 160-88.366 0-160-71.634-160-160zM256 308.977c82.278 0 148.977-66.699 148.977-148.977 0-82.278-66.699-148.977-148.977-148.977-82.278 0-148.977 66.699-148.977 148.977 0 82.278 66.699 148.977 148.977 148.977z" fill="#000000" fill-rule="nonzero" stroke="none" stroke-width="1" stroke-linecap="butt" stroke-linejoin="miter" stroke-miterlimit="10" stroke-dasharray="" stroke-dashoffset="0" font-family="none" font-weight="none" font-size="none" text-anchor="none" style="mix-blend-mode: normal" data-fill-palette-color="tertiary"></path></g><g transform="matrix(1,0,0,1,150.86648792759445,80)"><svg viewBox="0 0 210.2670241448111 160" height="160" width="210.2670241448111"><g><svg viewBox="0 0 256 194.79992246330937" height="160" width="210.2670241448111"><g transform="matrix(1,0,0,1,0,120.39416706762592)"><svg viewBox="0 0 256 74.40575539568347" height="74.40575539568347" width="256"><g id="textblocktransform"><svg viewBox="0 0 256 74.40575539568347" height="74.40575539568347" width="256" id="textblock"><g><svg viewBox="0 0 256 74.40575539568347" height="74.40575539568347" width="256"><g transform="matrix(1,0,0,1,0,0)"><svg width="256" viewBox="3 -39.65 138.99 40.4" height="74.40575539568347" data-palette-color="#fffbfb"><path d="M3-34.55L9.35-34.55 9.35 0 3 0 3-34.55ZM19.1-34.55L25.55-34.55 16.15-18.9 26.3 0 19.3 0 9.6-18.45 19.1-34.55ZM28.8-26.45L34.95-26.45 34.95 0 28.8 0 28.8-26.45ZM31.85-39.65Q33.5-39.65 34.52-38.6 35.55-37.55 35.55-35.9L35.55-35.9Q35.55-34.3 34.52-33.25 33.5-32.2 31.85-32.2L31.85-32.2Q30.2-32.2 29.17-33.25 28.15-34.3 28.15-35.9L28.15-35.9Q28.15-37.55 29.17-38.6 30.2-39.65 31.85-39.65L31.85-39.65ZM51.8-5L53.95-1.2Q51.5 0.75 48.2 0.75L48.2 0.75Q44.75 0.75 42.95-1.23 41.15-3.2 41.15-6.6L41.15-6.6 41.15-22 38.05-22 38.05-26.45 41.15-26.45 41.15-32.3 47.3-33.05 47.3-26.45 52.3-26.45 51.7-22 47.3-22 47.3-6.6Q47.3-4.2 49.34-4.2L49.34-4.2Q50-4.2 50.5-4.38 51-4.55 51.8-5L51.8-5ZM65.99-27.15Q68.14-27.15 69.89-26.43 71.64-25.7 73.24-24.15L73.24-24.15 70.59-20.65Q69.49-21.55 68.52-21.98 67.54-22.4 66.39-22.4L66.39-22.4Q64.14-22.4 62.99-20.28 61.84-18.15 61.84-13.1L61.84-13.1Q61.84-8.2 63.02-6.2 64.19-4.2 66.39-4.2L66.39-4.2Q67.49-4.2 68.39-4.6 69.29-5 70.49-5.85L70.49-5.85 73.24-2.3Q70.04 0.75 66.09 0.75L66.09 0.75Q60.99 0.75 58.17-2.73 55.34-6.2 55.34-13L55.34-13Q55.34-17.4 56.64-20.6 57.94-23.8 60.37-25.48 62.79-27.15 65.99-27.15L65.99-27.15ZM88.64-27.15Q91.49-27.15 93.14-25.1 94.79-23.05 94.79-19.6L94.79-19.6 94.79 0 88.64 0 88.64-18.9Q88.64-20.8 88.12-21.63 87.59-22.45 86.59-22.45L86.59-22.45Q84.49-22.45 82.44-18.5L82.44-18.5 82.44 0 76.29 0 76.29-37 82.44-37.65 82.44-23.3Q83.69-25.25 85.17-26.2 86.64-27.15 88.64-27.15L88.64-27.15ZM119.19-13.85Q119.19-13.4 119.04-11.3L119.04-11.3 105.39-11.3Q105.59-7.2 106.81-5.58 108.04-3.95 110.29-3.95L110.29-3.95Q111.84-3.95 113.09-4.48 114.34-5 115.79-6.15L115.79-6.15 118.34-2.65Q114.84 0.75 109.94 0.75L109.94 0.75Q104.74 0.75 101.96-2.85 99.19-6.45 99.19-13L99.19-13Q99.19-19.55 101.84-23.35 104.49-27.15 109.34-27.15L109.34-27.15Q113.99-27.15 116.59-23.78 119.19-20.4 119.19-13.85L119.19-13.85ZM113.19-15.3L113.19-15.65Q113.19-19.4 112.29-21.13 111.39-22.85 109.39-22.85L109.39-22.85Q107.54-22.85 106.56-21.18 105.59-19.5 105.39-15.3L105.39-15.3 113.19-15.3ZM135.84-27.15Q138.69-27.15 140.34-25.1 141.99-23.05 141.99-19.6L141.99-19.6 141.99 0 135.84 0 135.84-18.9Q135.84-20.8 135.31-21.63 134.79-22.45 133.79-22.45L133.79-22.45Q131.69-22.45 129.64-18.5L129.64-18.5 129.64 0 123.49 0 123.49-26.45 128.84-26.45 129.29-23Q130.64-25.1 132.16-26.13 133.69-27.15 135.84-27.15L135.84-27.15Z" opacity="1" transform="matrix(1,0,0,1,0,0)" fill="#fffbfb" class="wordmark-text-0" data-fill-palette-color="primary" id="text-0"></path></svg></g></svg></g></svg></g></svg></g><g transform="matrix(1,0,0,1,76.58562302158273,0)"><svg viewBox="0 0 102.82875395683455 102.82875395683455" height="102.82875395683455" width="102.82875395683455"><g><svg xmlns="http://www.w3.org/2000/svg" xmlns:xlink="http://www.w3.org/1999/xlink" version="1.1" x="0" y="0" viewBox="5 4.9999999999999964 90 90" enable-background="new 0 0 100 100" xml:space="preserve" height="102.82875395683455" width="102.82875395683455" class="icon-icon-0" data-fill-palette-color="accent" id="icon-0"><g fill="#f63d3d" data-fill-palette-color="accent"><path d="M48.1 55.6V29.4c0-1-0.8-1.9-1.9-1.9s-1.9 0.8-1.9 1.9v28.1H50C49 57.5 48.1 56.7 48.1 55.6z" fill="#f63d3d" data-fill-palette-color="accent"></path><path d="M21.9 37.5v-8.2c0-3.1 2.5-5.6 5.6-5.6h18.8c3.1 0 5.6 2.5 5.6 5.6v26.3c0 1-0.8 1.9-1.9 1.9h3.9c0.3-0.6 0.4-1.2 0.4-1.9V29.4c0-4.5-3.6-8.1-8.1-8.1h-4.9c2.6-1.5 4.3-4.3 4.3-7.5 0-4.8-3.9-8.8-8.8-8.8s-8.8 3.9-8.8 8.8c0 3.2 1.7 6 4.3 7.5h-4.9c-4.5 0-8.1 3.6-8.1 8.1v8.4c0.6-0.2 1.2-0.3 1.9-0.3C21.5 37.5 21.7 37.5 21.9 37.5zM30.6 13.8c0-3.4 2.8-6.3 6.3-6.3s6.3 2.8 6.3 6.3S40.3 20 36.9 20 30.6 17.2 30.6 13.8z" fill="#f63d3d" data-fill-palette-color="accent"></path><path d="M27.5 27.5c-1 0-1.9 0.8-1.9 1.9v9.9c1.2 1.1 1.9 2.7 1.9 4.5 0 0.9-0.2 1.8-0.5 2.5 0.9 0.1 1.7 0.4 2.4 0.8V29.4C29.4 28.3 28.5 27.5 27.5 27.5z" fill="#f63d3d" data-fill-palette-color="accent"></path><path d="M92.5 57.5H87l0.3-0.7c0.2-0.4 0.2-0.8-0.1-1.2S86.7 55 86.3 55h-2.3c2.2-2.3 3.6-5.3 3.6-8.8 0-0.7-0.6-1.3-1.3-1.3h-1.4l3.4-5c0.1-0.1 0.2-0.2 0.3-0.3 0.2-0.1 0.5-0.1 0.7 0 0.2 0.1 0.4 0.2 0.5 0.5l0.3 0.5c0.3 0.6 1.1 0.9 1.7 0.6 0.6-0.3 0.9-1.1 0.6-1.7l-0.3-0.5c-0.4-0.8-1.1-1.5-2-1.8-0.9-0.3-1.8-0.2-2.7 0.2-0.5 0.3-1 0.7-1.4 1.2L81.8 45h-18c-0.7 0-1.3 0.6-1.3 1.3 0 3.4 1.4 6.5 3.6 8.8h-2.3c-0.4 0-0.8 0.2-1.1 0.6s-0.2 0.8-0.1 1.2l0.3 0.7h-9H50h-5.6H33.3l0.3-0.7c0.2-0.4 0.2-0.8-0.1-1.2S32.9 55 32.5 55H32c0.3-0.8 0.5-1.6 0.5-2.5 0-2.3-1.3-4.3-3.1-5.4-0.7-0.4-1.5-0.7-2.4-0.8 0.3-0.8 0.5-1.6 0.5-2.5 0-1.7-0.7-3.3-1.9-4.5-1-1-2.3-1.6-3.8-1.8-0.2 0-0.4 0-0.6 0-0.7 0-1.3 0.1-1.9 0.3-2.5 0.8-4.4 3.2-4.4 6 0 0.9 0.2 1.8 0.5 2.5-3.1 0.4-5.5 3-5.5 6.2 0 0.9 0.2 1.7 0.5 2.5H10c-0.4 0-0.8 0.2-1.1 0.6s-0.2 0.8-0.1 1.2l0.3 0.7H7.5C6.1 57.5 5 58.6 5 60v32.5C5 93.9 6.1 95 7.5 95h85c1.4 0 2.5-1.1 2.5-2.5V60C95 58.6 93.9 57.5 92.5 57.5zM12.5 52.5c0-2.1 1.7-3.8 3.8-3.8s3.8 1.7 3.8 3.8c0 1-0.4 1.8-1 2.5h-5.5C12.9 54.3 12.5 53.5 12.5 52.5zM30 52.5c0 1-0.4 1.8-1 2.5h-5.5c-0.6-0.7-1-1.5-1-2.5 0-2.1 1.7-3.8 3.8-3.8S30 50.4 30 52.5zM10 90V69.9c1.9 0 3.6-0.7 5-1.9 1.4 1.2 3.1 1.9 5 1.9 0 0 0 0 0 0 0 0 0 0 0 0 1.9 0 3.6-0.7 5-1.9 1.4 1.2 3.1 1.9 5 1.9 0 0 0 0 0 0 0 0 0 0 0 0 1.9 0 3.6-0.7 5-1.9 1.4 1.2 3.1 1.9 5 1.9 0 0 0 0 0 0 0 0 0 0 0 0 1.9 0 3.6-0.7 5-1.9 1.4 1.2 3.1 1.9 5 1.9 0 0 0 0 0 0 0 0 0 0 0 0 1.9 0 3.6-0.7 5-1.9 1.4 1.2 3.1 1.9 5 1.9 0 0 0 0 0 0 0 0 0 0 0 0 1.9 0 3.6-0.7 5-1.9 1.4 1.2 3.1 1.9 5 1.9 0 0 0 0 0 0 0 0 0 0 0 0 1.9 0 3.6-0.7 5-1.9 1.4 1.2 3.1 1.9 5 1.9 0 0 0 0 0 0 0 0 0 0 0 0 1.9 0 3.6-0.7 5-1.9 1.4 1.2 3.1 1.9 5 1.9 0 0 0 0 0 0V90H10zM90 67.4C90 67.4 90 67.4 90 67.4c-1.6 0-3-0.7-4-1.9-0.2-0.3-0.6-0.5-1-0.5-0.4 0-0.7 0.2-1 0.5-1 1.2-2.4 1.9-4 1.9h0c0 0 0 0 0 0-1.6 0-3-0.7-4-1.9-0.2-0.3-0.6-0.5-1-0.5-0.4 0-0.7 0.2-1 0.5-1 1.2-2.4 1.9-4 1.9h0c0 0 0 0 0 0-1.6 0-3-0.7-4-1.9-0.2-0.3-0.6-0.5-1-0.5-0.4 0-0.7 0.2-1 0.5-1 1.2-2.4 1.9-4 1.9h0c0 0 0 0 0 0-1.6 0-3-0.7-4-1.9-0.2-0.3-0.6-0.5-1-0.5-0.4 0-0.7 0.2-1 0.5-1 1.2-2.4 1.9-4 1.9h0c0 0 0 0 0 0-1.6 0-3-0.7-4-1.9-0.2-0.3-0.6-0.5-1-0.5-0.4 0-0.7 0.2-1 0.5-1 1.2-2.4 1.9-4 1.9h0c0 0 0 0 0 0-1.6 0-3-0.7-4-1.9-0.2-0.3-0.6-0.5-1-0.5-0.4 0-0.7 0.2-1 0.5-1 1.2-2.4 1.9-4 1.9h0c0 0 0 0 0 0-1.6 0-3-0.7-4-1.9-0.5-0.6-1.5-0.6-2 0-1 1.2-2.4 1.9-4 1.9h0c0 0 0 0 0 0-1.6 0-3-0.7-4-1.9-0.2-0.3-0.6-0.5-1-0.5-0.4 0-0.7 0.2-1 0.5-1 1.2-2.4 1.9-4 1.9v-4.9h80V67.4zM21.3 47.5c-2.1 0-3.8-1.7-3.8-3.8s1.7-3.8 3.8-3.8 3.8 1.7 3.8 3.8S23.3 47.5 21.3 47.5zM65.1 47.5h17.1c0.1 0 0.2 0.1 0.3 0.1 0.1 0 0.2 0 0.3-0.1h2.1c-0.4 3.2-2.4 6-5.1 7.5h-9.6C67.4 53.5 65.5 50.7 65.1 47.5z" fill="#f63d3d" data-fill-palette-color="accent"></path><path d="M70.4 35.6c0.3-0.6 0.1-1.4-0.6-1.7-0.6-0.3-1.4-0.1-1.7 0.6l-0.5 0.9c-0.7 1.4-0.4 3.1 0.7 4.3 0.4 0.4 0.5 0.9 0.2 1.4l-0.5 0.9c-0.3 0.6-0.1 1.4 0.6 1.7 0.2 0.1 0.4 0.1 0.6 0.1 0.5 0 0.9-0.3 1.1-0.7l0.5-0.9c0.7-1.4 0.4-3.1-0.7-4.3-0.4-0.4-0.5-0.9-0.2-1.4L70.4 35.6z" fill="#f63d3d" data-fill-palette-color="accent"></path><path d="M75.4 35.6c0.3-0.6 0.1-1.4-0.6-1.7-0.6-0.3-1.4-0.1-1.7 0.6l-0.5 0.9c-0.7 1.4-0.4 3.1 0.7 4.3 0.4 0.4 0.5 0.9 0.2 1.4l-0.5 0.9c-0.3 0.6-0.1 1.4 0.6 1.7 0.2 0.1 0.4 0.1 0.6 0.1 0.5 0 0.9-0.3 1.1-0.7l0.5-0.9c0.7-1.4 0.4-3.1-0.7-4.3-0.4-0.4-0.5-0.9-0.2-1.4L75.4 35.6z" fill="#f63d3d" data-fill-palette-color="accent"></path><path d="M80.4 35.6c0.3-0.6 0.1-1.4-0.6-1.7-0.6-0.3-1.4-0.1-1.7 0.6l-0.5 0.9c-0.7 1.4-0.4 3.1 0.7 4.3 0.4 0.4 0.5 0.9 0.2 1.4l-0.5 0.9c-0.3 0.6-0.1 1.4 0.6 1.7 0.2 0.1 0.4 0.1 0.6 0.1 0.5 0 0.9-0.3 1.1-0.7l0.5-0.9c0.7-1.4 0.4-3.1-0.7-4.3-0.4-0.4-0.5-0.9-0.2-1.4L80.4 35.6z" fill="#f63d3d" data-fill-palette-color="accent"></path></g></svg></g></svg></g><g></g></svg></g></svg></g></svg></g><defs></defs></svg><rect width="512" height="320" fill="none" stroke="none" visibility="hidden"></rect></g></svg></g></svg>