<svg xmlns="http://www.w3.org/2000/svg" version="1.1" xmlns:xlink="http://www.w3.org/1999/xlink" xmlns:svgjs="http://svgjs.dev/svgjs" width="1000" height="1000" viewBox="0 0 1000 1000"><rect width="1000" height="1000" fill="#3679ff"></rect><g transform="matrix(0.7,0,0,0.7,150,281.25)"><svg viewBox="0 0 512 320" data-background-color="#3679ff" preserveAspectRatio="xMidYMid meet" height="625" width="1000" xmlns="http://www.w3.org/2000/svg" xmlns:xlink="http://www.w3.org/1999/xlink"><g id="tight-bounds" transform="matrix(1,0,0,1,0,0)"><svg viewBox="0 0 512 320" height="320" width="512"><g><svg></svg></g><g><svg viewBox="0 0 512 320" height="320" width="512"><g><path d="M96 160c0-88.366 71.634-160 160-160 88.366 0 160 71.634 160 160 0 88.366-71.634 160-160 160-88.366 0-160-71.634-160-160zM256 308.977c82.278 0 148.977-66.699 148.977-148.977 0-82.278-66.699-148.977-148.977-148.977-82.278 0-148.977 66.699-148.977 148.977 0 82.278 66.699 148.977 148.977 148.977z" fill="#000000" fill-rule="nonzero" stroke="none" stroke-width="1" stroke-linecap="butt" stroke-linejoin="miter" stroke-miterlimit="10" stroke-dasharray="" stroke-dashoffset="0" font-family="none" font-weight="none" font-size="none" text-anchor="none" style="mix-blend-mode: normal" data-fill-palette-color="tertiary"></path></g><g transform="matrix(1,0,0,1,174.2059011930137,80)"><svg viewBox="0 0 163.58819761397265 160" height="160" width="163.58819761397265"><g><svg viewBox="0 0 256 250.3848113581848" height="160" width="163.58819761397265"><g transform="matrix(1,0,0,1,0,154.74785835980555)"><svg viewBox="0 0 256 95.63695299837926" height="95.63695299837926" width="256"><g id="textblocktransform"><svg viewBox="0 0 256 95.63695299837926" height="95.63695299837926" width="256" id="textblock"><g><svg viewBox="0 0 256 95.63695299837926" height="95.63695299837926" width="256"><g transform="matrix(1,0,0,1,0,0)"><svg width="256" viewBox="0.35 -35.25 123.39 46.1" height="95.63695299837926" data-palette-color="#fffbfb"><path d="M11.75-35.25Q14.75-35.25 17.05-34.2 19.35-33.15 21.3-31.05L21.3-31.05 18.35-27.65Q16.8-29.05 15.33-29.75 13.85-30.45 12.2-30.45L12.2-30.45Q10.3-30.45 9.2-29.28 8.1-28.1 8.1-26.2L8.1-26.2Q8.1-24.3 9.25-23.1 10.4-21.9 13.75-20.6L13.75-20.6Q18.05-18.85 20.08-16.5 22.1-14.15 22.1-9.85L22.1-9.85Q22.1-6.9 20.75-4.48 19.4-2.05 16.88-0.65 14.35 0.75 11 0.75L11 0.75Q7.55 0.75 5-0.48 2.45-1.7 0.35-3.95L0.35-3.95 3.55-7.45Q5.35-5.85 7-5 8.65-4.15 10.6-4.15L10.6-4.15Q12.9-4.15 14.18-5.58 15.45-7 15.45-9.45L15.45-9.45Q15.45-11.6 14.33-12.98 13.2-14.35 10.15-15.5L10.15-15.5Q5.55-17.35 3.53-19.75 1.5-22.15 1.5-25.75L1.5-25.75Q1.5-28.5 2.83-30.65 4.15-32.8 6.5-34.02 8.85-35.25 11.75-35.25L11.75-35.25ZM38.3-27.15Q42.2-27.15 44.2-23.58 46.2-20 46.2-13.3L46.2-13.3Q46.2-6.8 43.92-3.03 41.65 0.75 37.6 0.75L37.6 0.75Q34.4 0.75 32.25-2.1L32.25-2.1 32.25 10.15 26.1 10.85 26.1-26.45 31.55-26.45 31.8-23.25Q33.1-25.25 34.7-26.2 36.3-27.15 38.3-27.15L38.3-27.15ZM35.95-3.95Q37.85-3.95 38.85-6.13 39.85-8.3 39.85-13.25L39.85-13.25Q39.85-18.45 39-20.5 38.15-22.55 36.35-22.55L36.35-22.55Q34.05-22.55 32.25-19.25L32.25-19.25 32.25-6.45Q33.85-3.95 35.95-3.95L35.95-3.95ZM60.2-27.15Q65.2-27.15 67.97-23.65 70.75-20.15 70.75-13.25L70.75-13.25Q70.75-6.65 67.95-2.95 65.15 0.75 60.2 0.75L60.2 0.75Q55.25 0.75 52.45-2.88 49.65-6.5 49.65-13.25L49.65-13.25Q49.65-19.95 52.45-23.55 55.25-27.15 60.2-27.15L60.2-27.15ZM60.2-22.5Q58.05-22.5 57.05-20.38 56.05-18.25 56.05-13.25L56.05-13.25Q56.05-8.2 57.05-6.08 58.05-3.95 60.2-3.95L60.2-3.95Q62.35-3.95 63.35-6.08 64.35-8.2 64.35-13.25L64.35-13.25Q64.35-18.3 63.35-20.4 62.35-22.5 60.2-22.5L60.2-22.5ZM86.94-27.1Q88.09-27.1 88.99-26.75L88.99-26.75 87.99-20.85Q86.99-21.1 86.14-21.1L86.14-21.1Q84.24-21.1 83.14-19.45 82.04-17.8 81.44-14.55L81.44-14.55 81.44 0 75.29 0 75.29-26.45 80.64-26.45 81.09-21.85Q82.94-27.1 86.94-27.1L86.94-27.1ZM102.99-5L105.14-1.2Q102.69 0.75 99.39 0.75L99.39 0.75Q95.94 0.75 94.14-1.23 92.34-3.2 92.34-6.6L92.34-6.6 92.34-22 89.24-22 89.24-26.45 92.34-26.45 92.34-32.3 98.49-33.05 98.49-26.45 103.49-26.45 102.89-22 98.49-22 98.49-6.6Q98.49-4.2 100.54-4.2L100.54-4.2Q101.19-4.2 101.69-4.38 102.19-4.55 102.99-5L102.99-5ZM115.04-27.15Q119.74-27.15 122.99-24.05L122.99-24.05 120.64-20.7Q119.24-21.7 117.99-22.2 116.74-22.7 115.44-22.7L115.44-22.7Q113.99-22.7 113.16-21.93 112.34-21.15 112.34-19.8L112.34-19.8Q112.34-18.45 113.26-17.63 114.19-16.8 116.99-15.7L116.99-15.7Q120.44-14.35 122.09-12.5 123.74-10.65 123.74-7.55L123.74-7.55Q123.74-3.7 121.04-1.48 118.34 0.75 114.19 0.75L114.19 0.75Q111.49 0.75 109.21-0.23 106.94-1.2 105.24-2.95L105.24-2.95 108.24-6.25Q111.04-3.8 113.94-3.8L113.94-3.8Q115.59-3.8 116.54-4.67 117.49-5.55 117.49-7.1L117.49-7.1Q117.49-8.25 117.09-8.97 116.69-9.7 115.69-10.33 114.69-10.95 112.69-11.7L112.69-11.7Q109.24-13.05 107.76-14.85 106.29-16.65 106.29-19.45L106.29-19.45Q106.29-22.8 108.66-24.98 111.04-27.15 115.04-27.15L115.04-27.15Z" opacity="1" transform="matrix(1,0,0,1,0,0)" fill="#fffbfb" class="wordmark-text-0" data-fill-palette-color="primary" id="text-0"></path></svg></g></svg></g></svg></g></svg></g><g transform="matrix(1,0,0,1,71.80636888412374,0)"><svg viewBox="0 0 112.3872622317525 132.17026904376016" height="132.17026904376016" width="112.3872622317525"><g><svg xmlns="http://www.w3.org/2000/svg" xmlns:xlink="http://www.w3.org/1999/xlink" version="1.1" x="0" y="0" viewBox="10.909268364522957 1.2999999999999972 78.48470294447425 92.3" enable-background="new 0 0 95 95" xml:space="preserve" height="132.17026904376016" width="112.3872622317525" class="icon-icon-0" data-fill-palette-color="accent" id="icon-0"><g fill="#f63d3d" data-fill-palette-color="accent"><circle cx="48.2" cy="11" r="9.7" fill="#f63d3d" data-fill-palette-color="accent"></circle></g><g fill="#f63d3d" data-fill-palette-color="accent"><rect x="15.3" y="50.8" transform="matrix(0.9956 9.352125e-02 -9.352125e-02 0.9956 5.0087 -2.1141)" width="19.5" height="3.2" fill="#f63d3d" data-fill-palette-color="accent"></rect></g><path d="M88.8 30.5l-2.1-1.7c-0.6-0.5-1.5-0.4-2 0.2L83 31.1l-10.8-8.6 1.7-2.1c0.4-0.5 0.4-1.5-0.2-2l-2.1-1.7c-0.6-0.5-1.5-0.4-2 0.2l-5.4 6.7c-0.5 0.6-0.4 1.5 0.2 2l2.1 1.7c0.6 0.5 1.5 0.4 2-0.2l1.6-2 1.8 1.4c-0.2 0.1-0.4 0.3-0.6 0.5l-7.9 8-12.3-9.5c-3.6-2.7-8.3-3.2-12.4-1.2l-14.5 7.4c-1.5 0.8-2.4 2.3-2.3 4l0.7 14.6L21 50.1l0.2-2.6c0.1-0.9-0.5-1.5-1.3-1.6l-2.7-0.2c-0.8-0.1-1.5 0.5-1.6 1.3l-0.8 8.5c-0.1 0.8 0.5 1.5 1.3 1.6l2.7 0.2c0.8 0.1 1.5-0.5 1.6-1.3l0.2-2.6 2.3 0.2c0.5 1.9 2.2 3.3 4.2 3.3 0.1 0 0.1 0 0.2 0 1.7-0.1 3-1.1 3.7-2.5l1.7 0.2-0.2 2.8c-0.1 0.8 0.5 1.5 1.3 1.6l2.7 0.2c0.1 0 0.1 0 0.2 0 0.7 0 1.3-0.6 1.4-1.3l0.8-8.5c0.1-0.9-0.5-1.6-1.3-1.6l-2.7-0.2c-0.1 0-0.1 0-0.2 0-0.7 0-1.3 0.6-1.4 1.3L33 51.3l-1.7-0.2L30.7 38l4.8-2.4L35 45.9c0 0 0 0 0.1 0l2.6 0.2c0.8 0 1.5 0.4 2.1 1 0.6 0.7 0.9 1.5 0.8 2.4l-0.7 8.5 0 0 0 0c-0.2 1.5-1.5 2.7-3 2.7-0.1 0-0.2 0-0.3 0l-2.5-0.2-8.8 13L12.6 84.1c-2 1.7-2.3 4.8-0.5 6.8 1 1.1 2.3 1.7 3.7 1.7 1.1 0 2.2-0.4 3.1-1.2l12.9-11.1c0.3-0.3 0.6-0.6 0.9-1L42 65.6l11.1 7.5-3.7 14.5c-0.7 2.6 0.9 5.2 3.5 5.9 0.4 0.1 0.8 0.1 1.2 0.1 2.2 0 4.1-1.5 4.7-3.6l4.5-17.8c0.5-2-0.3-4-2-5.2l-11.1-7.5c0.2-0.6 0.3-1.2 0.3-1.9l1-21.1 9.8 7.5c1.7 1.3 4.2 1.2 5.7-0.4l10.5-10.7c0.4-0.4 0.7-0.8 0.9-1.3l2.6 2.1-1.7 2.1c-0.5 0.6-0.4 1.5 0.2 2l2.1 1.7c0.6 0.5 1.5 0.4 2-0.2l5.4-6.7C89.6 31.9 89.5 31.1 88.8 30.5z" fill="#f63d3d" data-fill-palette-color="accent"></path></svg></g></svg></g><g></g></svg></g></svg></g></svg></g><defs></defs></svg><rect width="512" height="320" fill="none" stroke="none" visibility="hidden"></rect></g></svg></g></svg>